<svg width="50" height="74" viewBox="0 0 50 74" fill="none" xmlns="http://www.w3.org/2000/svg">
<path d="M18.2609 0L18.0917 0.428634L13.4137 12.2322H26.4163C32.3072 12.2322 37.0779 17.024 37.0779 22.936C37.0779 25.8919 35.8852 28.5648 33.9552 30.5017C32.0251 32.4387 29.3577 33.6356 26.4163 33.6356H5.15755C5.08099 33.6639 4.99637 33.672 4.91176 33.6639L0 46.062H12.0396L28.3665 70.9066C29.6357 72.8354 31.7834 74 34.0882 74H47.9209L29.4786 45.9326C30.2684 45.8476 31.046 45.7263 31.8076 45.5646C36.2358 44.6305 40.1966 42.4105 43.2791 39.3171C47.4333 35.148 50 29.3897 50 23.033C50 10.3115 39.7252 0 27.0489 0H18.2609Z" fill="white"/>
</svg>
